<svg width="155" height="48" viewBox="0 0 550.301 75.002" xmlns="http://www.w3.org/2000/svg"><g id="svgGroup" stroke-linecap="round" fill-rule="nonzero" font-size="9pt" stroke="#ffffff" stroke-width="0" fill="#ffffff" style="stroke:#ffffff;stroke-width:0;fill:#ffffff"><path d="M 499.801 73.501 L 489.401 73.501 L 472.901 19.401 L 486.201 19.501 L 496.001 51.701 L 505.951 19.501 L 517.251 19.501 L 527.201 51.701 L 537.001 19.501 L 550.301 19.501 L 533.801 73.501 L 523.401 73.501 L 511.601 38.301 L 499.801 73.501 Z M 190.901 73.501 L 143.901 73.501 L 143.901 1.501 L 190.901 1.501 L 190.901 14.201 L 157.501 14.201 L 157.501 29.601 L 184.901 29.601 L 184.901 42.301 L 157.501 42.301 L 157.501 60.801 L 190.901 60.801 L 190.901 73.501 Z M 67.601 22.801 L 53.901 26.601 A 22.458 22.458 0 0 0 51.473 21.184 A 17.909 17.909 0 0 0 47.151 16.426 Q 42.522 12.894 35.282 12.803 A 30.602 30.602 0 0 0 34.901 12.801 A 25.393 25.393 0 0 0 29.757 13.295 Q 26.432 13.982 23.821 15.627 A 15.951 15.951 0 0 0 23.476 15.851 A 18.146 18.146 0 0 0 17.293 22.94 A 22.478 22.478 0 0 0 16.601 24.451 A 29.044 29.044 0 0 0 14.807 30.892 Q 14.301 33.982 14.301 37.501 Q 14.301 44.671 16.403 50.059 A 25.401 25.401 0 0 0 16.601 50.551 A 19.979 19.979 0 0 0 19.852 55.939 A 17.576 17.576 0 0 0 23.476 59.151 Q 27.93 62.121 34.541 62.199 A 30.369 30.369 0 0 0 34.901 62.201 A 25.294 25.294 0 0 0 40.139 61.688 Q 43.677 60.939 46.392 59.099 A 15.716 15.716 0 0 0 47.151 58.551 A 18.719 18.719 0 0 0 52.812 51.291 A 24.285 24.285 0 0 0 53.901 48.401 L 67.601 52.201 A 33.982 33.982 0 0 1 61.396 63.566 A 31.946 31.946 0 0 1 55.726 68.851 A 31.456 31.456 0 0 1 42.61 74.339 A 43.055 43.055 0 0 1 34.901 75.001 A 41.686 41.686 0 0 1 25.724 74.036 A 31.777 31.777 0 0 1 16.276 70.301 Q 8.451 65.601 4.226 57.151 A 39.417 39.417 0 0 1 0.595 45.514 A 52.03 52.03 0 0 1 0.001 37.501 A 50.454 50.454 0 0 1 0.929 27.605 A 38.624 38.624 0 0 1 4.226 17.851 Q 8.451 9.401 16.276 4.701 A 32.476 32.476 0 0 1 27.789 0.563 A 43.331 43.331 0 0 1 34.901 0.001 A 41.408 41.408 0 0 1 44.656 1.096 A 30.875 30.875 0 0 1 55.726 6.151 A 32.475 32.475 0 0 1 67.38 22.149 A 39.721 39.721 0 0 1 67.601 22.801 Z M 114.401 73.501 L 94.101 73.501 L 72.101 1.501 L 86.101 1.501 L 104.101 60.701 L 122.401 1.501 L 136.401 1.501 L 114.401 73.501 Z M 319.451 50.301 L 306.001 50.301 L 306.001 45.301 Q 306.001 37.051 303.376 33.426 A 8.261 8.261 0 0 0 298.942 30.354 Q 297.125 29.801 294.801 29.801 Q 289.738 29.801 286.626 32.043 A 9.914 9.914 0 0 0 284.576 34.026 Q 282.182 37.114 281.538 42.353 A 34.067 34.067 0 0 0 281.301 46.501 A 28.004 28.004 0 0 0 281.637 50.986 Q 282.015 53.316 282.821 55.2 A 12.944 12.944 0 0 0 284.576 58.176 A 10.582 10.582 0 0 0 291.023 62.006 A 16.224 16.224 0 0 0 294.201 62.301 Q 298.201 62.301 301.051 60.551 A 10.98 10.98 0 0 0 305.056 56.204 A 13.534 13.534 0 0 0 305.401 55.501 L 319.001 59.401 Q 315.951 66.801 309.376 70.901 Q 302.801 75.001 295.001 75.001 A 32.794 32.794 0 0 1 287.194 74.107 A 26.637 26.637 0 0 1 280.376 71.426 Q 274.051 67.851 270.476 61.576 Q 266.901 55.301 266.901 47.201 A 37.707 37.707 0 0 1 267.663 39.44 A 28.583 28.583 0 0 1 270.401 31.801 Q 273.901 25.251 280.051 21.626 A 26.227 26.227 0 0 1 290.73 18.181 A 32.803 32.803 0 0 1 294.201 18.001 A 30.085 30.085 0 0 1 301.15 18.767 A 22.696 22.696 0 0 1 308.651 22.001 A 23.062 23.062 0 0 1 316.74 31.596 A 28.585 28.585 0 0 1 317.451 33.251 Q 320.301 40.501 319.451 50.301 Z M 466.651 50.301 L 453.201 50.301 L 453.201 45.301 Q 453.201 37.051 450.576 33.426 A 8.261 8.261 0 0 0 446.142 30.354 Q 444.325 29.801 442.001 29.801 Q 436.938 29.801 433.826 32.043 A 9.914 9.914 0 0 0 431.776 34.026 Q 429.382 37.114 428.738 42.353 A 34.067 34.067 0 0 0 428.501 46.501 A 28.004 28.004 0 0 0 428.837 50.986 Q 429.215 53.316 430.021 55.2 A 12.944 12.944 0 0 0 431.776 58.176 A 10.582 10.582 0 0 0 438.223 62.006 A 16.224 16.224 0 0 0 441.401 62.301 Q 445.401 62.301 448.251 60.551 A 10.98 10.98 0 0 0 452.256 56.204 A 13.534 13.534 0 0 0 452.601 55.501 L 466.201 59.401 Q 463.151 66.801 456.576 70.901 Q 450.001 75.001 442.201 75.001 A 32.794 32.794 0 0 1 434.394 74.107 A 26.637 26.637 0 0 1 427.576 71.426 Q 421.251 67.851 417.676 61.576 Q 414.101 55.301 414.101 47.201 A 37.707 37.707 0 0 1 414.863 39.44 A 28.583 28.583 0 0 1 417.601 31.801 Q 421.101 25.251 427.251 21.626 A 26.227 26.227 0 0 1 437.93 18.181 A 32.803 32.803 0 0 1 441.401 18.001 A 30.085 30.085 0 0 1 448.35 18.767 A 22.696 22.696 0 0 1 455.851 22.001 A 23.062 23.062 0 0 1 463.94 31.596 A 28.585 28.585 0 0 1 464.651 33.251 Q 467.501 40.501 466.651 50.301 Z M 216.501 73.501 L 202.901 73.501 L 202.901 1.501 L 233.301 1.501 A 37.632 37.632 0 0 1 233.871 1.506 Q 234.794 1.52 236.126 1.576 Q 237.843 1.649 239.21 1.885 A 17.191 17.191 0 0 1 239.301 1.901 A 27.523 27.523 0 0 1 244.329 3.145 Q 247.491 4.272 249.876 6.151 Q 254.001 9.401 255.951 14.326 A 27.757 27.757 0 0 1 257.708 21.607 A 34.503 34.503 0 0 1 257.901 25.301 Q 257.901 34.351 253.401 40.776 A 17.819 17.819 0 0 1 245.298 47.088 A 26.898 26.898 0 0 1 239.301 48.701 L 233.301 49.101 L 216.501 49.101 L 216.501 73.501 Z M 216.501 14.201 L 216.501 36.401 L 232.701 36.401 Q 233.751 36.401 235.001 36.301 Q 236.251 36.201 237.301 35.901 A 10.196 10.196 0 0 0 239.329 35.122 A 7.243 7.243 0 0 0 241.551 33.376 Q 243.051 31.601 243.626 29.426 A 17.784 17.784 0 0 0 244.091 27.05 A 14.348 14.348 0 0 0 244.201 25.301 A 14.904 14.904 0 0 0 243.976 22.776 A 18.571 18.571 0 0 0 243.626 21.176 Q 243.051 19.001 241.551 17.226 A 7.272 7.272 0 0 0 239.258 15.443 A 10.267 10.267 0 0 0 237.301 14.701 Q 236.251 14.401 235.001 14.301 Q 233.751 14.201 232.701 14.201 L 216.501 14.201 Z M 358.901 73.501 L 345.301 73.501 L 325.701 19.501 L 339.301 19.501 L 352.101 56.901 L 364.901 19.501 L 378.501 19.501 L 358.901 73.501 Z M 402.101 73.501 L 388.501 73.501 L 388.501 19.501 L 402.101 19.501 L 402.101 73.501 Z M 258.901 73.501 L 243.501 73.501 L 229.301 44.201 L 243.301 41.501 L 258.901 73.501 Z M 312.901 50.301 L 277.101 50.301 L 277.101 40.201 L 312.901 40.201 L 312.901 50.301 Z M 460.101 50.301 L 424.301 50.301 L 424.301 40.201 L 460.101 40.201 L 460.101 50.301 Z M 402.101 12.001 L 388.501 12.001 L 388.501 0.001 L 402.101 0.001 L 402.101 12.001 Z"/></g></svg>